<svg version="1.1" id="Layer_1" xmlns="http://www.w3.org/2000/svg" xmlns:xlink="http://www.w3.org/1999/xlink" x="0px" y="0px"
	 width="100%" viewBox="0 0 77 94" enable-background="new 0 0 77 94" xml:space="preserve">
<path fill="#2A2A29" opacity="1.000000" stroke="none" 
	d="
M45.000000,95.000000 
	C30.000000,95.000000 15.500000,95.000000 1.000000,95.000000 
	C1.000000,63.666668 1.000000,32.333332 1.000000,1.000000 
	C26.666666,1.000000 52.333332,1.000000 78.000000,1.000000 
	C78.000000,32.333332 78.000000,63.666668 78.000000,95.000000 
	C67.166664,95.000000 56.333332,95.000000 45.000000,95.000000 
M65.709755,58.883987 
	C57.492493,47.772552 46.581383,42.873230 33.048729,46.209793 
	C20.435846,49.319576 13.047425,57.979691 10.316848,70.689339 
	C9.412874,74.896942 10.371021,77.473572 14.787448,79.100555 
	C28.599174,84.188675 42.570618,85.409157 56.903419,81.922615 
	C72.293854,78.178795 74.184242,73.538223 65.709755,58.883987 
M49.394444,37.066353 
	C57.163212,30.982933 59.122005,22.367455 54.489708,14.655559 
	C50.256565,7.608183 41.047527,4.759408 33.554665,8.179401 
	C25.258308,11.966135 21.514076,21.760077 25.207291,30.013964 
	C29.243637,39.034714 38.785713,42.055691 49.394444,37.066353 
z"/>
<path fill="#F0B724" opacity="1.000000" stroke="none" 
	d="
M65.881470,59.208317 
	C74.184242,73.538223 72.293854,78.178795 56.903419,81.922615 
	C42.570618,85.409157 28.599174,84.188675 14.787448,79.100555 
	C10.371021,77.473572 9.412874,74.896942 10.316848,70.689339 
	C13.047425,57.979691 20.435846,49.319576 33.048729,46.209793 
	C46.581383,42.873230 57.492493,47.772552 65.881470,59.208317 
M64.229393,69.334183 
	C60.657871,57.658150 51.530010,50.717804 39.950397,50.873703 
	C28.902445,51.022453 19.312807,58.496536 16.376381,69.080887 
	C15.590684,71.912926 15.825732,73.672836 19.059011,74.744011 
	C33.487423,79.524063 47.818672,79.469910 62.179752,74.530457 
	C64.528755,73.722527 65.473007,72.462082 64.229393,69.334183 
z"/>
<path fill="#F1B824" opacity="1.000000" stroke="none" 
	d="
M49.081711,37.269920 
	C38.785713,42.055691 29.243637,39.034714 25.207291,30.013964 
	C21.514076,21.760077 25.258308,11.966135 33.554665,8.179401 
	C41.047527,4.759408 50.256565,7.608183 54.489708,14.655559 
	C59.122005,22.367455 57.163212,30.982933 49.081711,37.269920 
M51.170612,24.245728 
	C50.850945,16.090799 45.140144,10.891180 38.209995,12.445224 
	C32.846649,13.647923 29.188662,18.229437 29.342297,23.551741 
	C29.498106,28.949379 33.564449,33.468323 38.804749,34.067406 
	C44.958511,34.770920 48.980785,31.824419 51.170612,24.245728 
z"/>
<path fill="#2B2B29" opacity="1.000000" stroke="none" 
	d="
M64.353203,69.699913 
	C65.473007,72.462082 64.528755,73.722527 62.179752,74.530457 
	C47.818672,79.469910 33.487423,79.524063 19.059011,74.744011 
	C15.825732,73.672836 15.590684,71.912926 16.376381,69.080887 
	C19.312807,58.496536 28.902445,51.022453 39.950397,50.873703 
	C51.530010,50.717804 60.657871,57.658150 64.353203,69.699913 
z"/>
<path fill="#2D2C29" opacity="1.000000" stroke="none" 
	d="
M51.127224,24.659071 
	C48.980785,31.824419 44.958511,34.770920 38.804749,34.067406 
	C33.564449,33.468323 29.498106,28.949379 29.342297,23.551741 
	C29.188662,18.229437 32.846649,13.647923 38.209995,12.445224 
	C45.140144,10.891180 50.850945,16.090799 51.127224,24.659071 
z"/>
</svg>